<svg xmlns="http://www.w3.org/2000/svg" width="18" height="21" viewBox="0 0 18 21">
    <g>
        <path fill="#8a8a8a" d="M6.013 19.549a.789.789 0 0 1 .109-1.123.819.819 0 0 1 1.141.107 2.177 2.177 0 0 0 .442.434 2.116 2.116 0 0 0 2.94-.434h.01a.82.82 0 0 1 1.142-.107.788.788 0 0 1 .108 1.123 3.715 3.715 0 0 1-5.89 0zM4.276 16.63a5.134 5.134 0 0 1-3.25-1.617A4.261 4.261 0 0 1 0 12.139v-.129A4.394 4.394 0 0 1 .772 9.8l.075-.09a4.012 4.012 0 0 0 .939-1.847v-1.9a.811.811 0 0 1 1.55.166v1.9a.448.448 0 0 1 0 .1A5.506 5.506 0 0 1 2.04 10.7a2.642 2.642 0 0 0-.413 1.313v.2a2.689 2.689 0 0 0 .619 1.8 3.526 3.526 0 0 0 2.2 1.035 42.76 42.76 0 0 0 9.093 0 3.533 3.533 0 0 0 2.245-1.081 2.655 2.655 0 0 0 .592-1.746v-.212a2.743 2.743 0 0 0-.4-1.321A5.518 5.518 0 0 1 14.6 8.121a.608.608 0 0 1 0-.1V6.107c-.273-2.79-3.1-4.517-5.56-4.517a6.139 6.139 0 0 0-2.987.766.82.82 0 0 1-.822.006.787.787 0 0 1 .031-1.391A7.717 7.717 0 0 1 8.964 0c3.25 0 6.895 2.273 7.308 5.922v1.9a3.925 3.925 0 0 0 .94 1.847.785.785 0 0 1 .075.1A4.234 4.234 0 0 1 18 11.928l-.029.194a4.324 4.324 0 0 1-1 2.892 5.187 5.187 0 0 1-3.307 1.617 43.458 43.458 0 0 1-4.7.254 43.478 43.478 0 0 1-4.688-.255z"/>
    </g>
</svg>
