<svg xmlns="http://www.w3.org/2000/svg" width="20" height="20" viewBox="0 0 20 20"><g transform="translate(-2 -2)"><g transform="translate(2 2)"><path d="M6.253,20C2.392,20,0,17.608,0,13.756v-7.5C0,2.392,2.392,0,6.253,0h7.5C17.591,0,20,2.392,20,6.253V8.822a.756.756,0,0,1-.765.756V9.56a.764.764,0,0,1-.765-.765V6.253C18.47,3.2,16.8,1.53,13.756,1.53h-7.5C3.21,1.53,1.53,3.21,1.53,6.253v7.5c0,3.034,1.68,4.714,4.723,4.714h7.5c3.043,0,4.714-1.68,4.714-4.714a.765.765,0,1,1,1.53,0C20,17.608,17.608,20,13.756,20Zm3.765-5.857a.774.774,0,0,1-.739-.792v-.967a.765.765,0,1,1,1.53.053V13.4a.764.764,0,0,1-.764.739Zm3.4-3.588H6.658a.817.817,0,0,1-.792-.774.756.756,0,0,1,.757-.765H9.261v-2.4a.783.783,0,0,1,.774-.765.758.758,0,0,1,.225.034.766.766,0,0,1,.567.74V9.015h2.6a.772.772,0,0,1,.792.774.766.766,0,0,1-.748.765Z" fill="#200e32"/></g></g></svg>