<svg xmlns="http://www.w3.org/2000/svg" width="24" height="24" viewBox="0 0 24 24">
    <g fill="#ea6823">
        <path d="M1.15 6.942A3.931 3.931 0 0 1 0 4.165 3.871 3.871 0 0 1 1.14 1.4a3.926 3.926 0 1 1 .01 5.544zM2.2 2.457a2.334 2.334 0 0 0-.7 1.7v.01a2.423 2.423 0 0 0 2.43 2.426 2.444 2.444 0 0 0 2.43-2.428A2.433 2.433 0 0 0 2.2 2.457zM8.64.909a.9.9 0 1 1 .9.9.9.9 0 0 1-.9-.9z" transform="translate(2 3) translate(6.07 6.163)"/>
        <path d="M15.44 3.236l-.1-.22c-.27-.569-.58-1.229-.77-1.608A2.442 2.442 0 0 0 12.35 0H7.64a2.428 2.428 0 0 0-2.21 1.408c-.2.4-.54 1.119-.82 1.708l-.06.12a.2.2 0 0 1-.19.12A4.361 4.361 0 0 0 0 7.711v5.933A4.361 4.361 0 0 0 4.36 18h11.28A4.368 4.368 0 0 0 20 13.645V7.711a4.368 4.368 0 0 0-4.36-4.355.227.227 0 0 1-.2-.12z" opacity="0.4" transform="translate(2 3)"/>
    </g>
</svg>
