<svg xmlns="http://www.w3.org/2000/svg" width="26" height="26" viewBox="0 0 26 26">
    <g>
        <path fill="#8a8a8a" d="M6.111 21.666C2.456 21.666 0 19.1 0 15.282v-8.9C0 2.565 2.456 0 6.111 0h9.444c3.655 0 6.111 2.565 6.111 6.384v2.567a.756.756 0 1 1-1.512 0V6.384c0-2.961-1.8-4.872-4.6-4.872H6.111c-2.794 0-4.6 1.911-4.6 4.872v8.9c0 2.961 1.806 4.872 4.6 4.872h9.443c2.794 0 4.6-1.911 4.6-4.872v-1.177c-.165-.137-.332-.283-.5-.43-1.192-1.031-2.422-2.094-3.766-1.783-.939.217-1.463.993-2.07 1.889a6.677 6.677 0 0 1-1.942 2.117c-1.306.808-2.683.207-3.69-.234l-.168-.072a2.288 2.288 0 0 0-2.906.378.756.756 0 0 1-1.073-1.072 3.765 3.765 0 0 1 4.582-.7l.171.075c1 .438 1.7.7 2.289.333a5.467 5.467 0 0 0 1.483-1.677 5.055 5.055 0 0 1 2.979-2.514c2.093-.488 3.759.955 5.1 2.112.253.22.5.435.741.627a.755.755 0 0 1 .284.59v1.533c0 3.819-2.457 6.384-6.112 6.384zM4.654 7.345a2.771 2.771 0 1 1 2.771 2.773 2.774 2.774 0 0 1-2.771-2.773zm1.511 0a1.26 1.26 0 1 0 1.26-1.259 1.26 1.26 0 0 0-1.26 1.259z" transform="translate(2.167 2.167)"/>
    </g>
</svg>
