<svg xmlns="http://www.w3.org/2000/svg" width="20.765" height="15.75" viewBox="0 0 20.765 15.75">
  <g transform="translate(0 -39.25)">
    <path fill="#200e32" d="M24.4,12.375H5.365A1.024,1.024,0,0,1,4.5,11.25h0a1.024,1.024,0,0,1,.865-1.125H24.4a1.024,1.024,0,0,1,.865,1.125h0A1.024,1.024,0,0,1,24.4,12.375Z" transform="translate(-4.5 29.125)"/>
    <path fill="#200e32" d="M19.958,19.125H5.172c-.37,0-.672-.506-.672-1.125h0c0-.619.3-1.125.672-1.125H19.958c.37,0,.672.506.672,1.125h0C20.63,18.619,20.328,19.125,19.958,19.125Z" transform="translate(-4.5 29.125)"/>
    <path fill="#200e32" d="M13.9,25.875H4.909c-.225,0-.409-.506-.409-1.125h0c0-.619.184-1.125.409-1.125H13.9c.225,0,.409.506.409,1.125h0C14.313,25.369,14.129,25.875,13.9,25.875Z" transform="translate(-4.5 29.125)"/>
  </g>
</svg>
