<svg xmlns="http://www.w3.org/2000/svg" width="27.2" height="24.74" viewBox="0 0 27.2 24.74">
    <g>
        <path fill="none" stroke="#8a8a8a" stroke-dasharray="55 8 55 0" stroke-linecap="round" stroke-miterlimit="10" stroke-width="1.2px" d="M372.147 542.3a2.393 2.393 0 0 1-3 2.314l-2.968 8.777a1.661 1.661 0 0 1-.068 3.321h-13.703a1.662 1.662 0 0 1-.277-3.3l-3.064-9.825a2.393 2.393 0 1 1 1.61-1.265l3.04.928a2.323 2.323 0 0 0 2.87-1.451l1.463-4.161a2.39 2.39 0 1 1 2.46-.051l1.34 4.256a2.323 2.323 0 0 0 2.833 1.542l2.706-.745a2.342 2.342 0 0 1-.024-.338 2.391 2.391 0 0 1 4.782 0z" transform="translate(.6 .6) translate(-346.147 -533.172)"/>
    </g>
</svg>
