<svg xmlns="http://www.w3.org/2000/svg" width="32" height="32" viewBox="0 0 32 32">
    <g>
        <path fill="#fff" d="M25.512 3.445a2.262 2.262 0 0 0-2.431.3l-2.112 1.74a.994.994 0 0 0-.137 1.391.979.979 0 0 0 1.382.137l2.112-1.74a.314.314 0 0 1 .347-.042.323.323 0 0 1 .191.3v9.052a.323.323 0 0 1-.191.3.314.314 0 0 1-.348-.042l-5-4.124V5.482A5.3 5.3 0 0 0 13.722 0H5.6A5.3 5.3 0 0 0 0 5.482v9.17a5.29 5.29 0 0 0 5.588 5.467.988.988 0 0 0 0-1.976 3.3 3.3 0 0 1-3.625-3.491v-9.17A3.315 3.315 0 0 1 5.6 1.976h8.121a3.315 3.315 0 0 1 3.638 3.506v9.17a3.309 3.309 0 0 1-3.638 3.491h-2.262a.988.988 0 0 0 0 1.976h2.262a5.3 5.3 0 0 0 5.6-5.467v-1.375l3.758 3.1a2.258 2.258 0 0 0 1.443.524 2.308 2.308 0 0 0 2.3-2.313V5.533a2.292 2.292 0 0 0-1.314-2.088" transform="translate(2.683 6.036)"/>
    </g>
</svg>
