<svg xmlns="http://www.w3.org/2000/svg" width="21" height="22" viewBox="0 0 21 22">
    <g>
        <path fill="#797979" d="M5.4 15.918a.96.96 0 0 0-1.432-.845A2.333 2.333 0 0 1 .823 14.2l-.535-.959a2.447 2.447 0 0 1 .851-3.221.983.983 0 0 0 .346-.354.992.992 0 0 0 .157-.779.977.977 0 0 0-.463-.639 2.446 2.446 0 0 1-.85-3.22.685.685 0 0 1 .437-.3.673.673 0 0 1 .516.106.7.7 0 0 1 .2.935A.987.987 0 0 0 1.83 7.1a2.344 2.344 0 0 1 .819.878A2.447 2.447 0 0 1 1.8 11.2a.988.988 0 0 0-.354 1.329l.543.958a.94.94 0 0 0 .58.462.917.917 0 0 0 .727-.108 2.235 2.235 0 0 1 1.157-.314 2.389 2.389 0 0 1 2.361 2.416.972.972 0 0 0 .961.974l-.008.016a.683.683 0 0 1 .593.351.716.716 0 0 1 0 .7.684.684 0 0 1-.593.35A2.389 2.389 0 0 1 5.4 15.918zm4.4.073a2.427 2.427 0 0 1 1.178-2.041 2.318 2.318 0 0 1 2.317-.028.919.919 0 0 0 .724.1.99.99 0 0 0 .583-.459l.535-.959a.986.986 0 0 0 .1-.738.964.964 0 0 0-.445-.59 2.316 2.316 0 0 1-.858-.958 2.447 2.447 0 0 1 .85-3.221.692.692 0 0 1 .929.266.709.709 0 0 1-.236.958.988.988 0 0 0-.445 1.1.971.971 0 0 0 .445.595 2.447 2.447 0 0 1 .818 3.3l-.535.958a2.332 2.332 0 0 1-3.148.87.927.927 0 0 0-.96-.009.971.971 0 0 0-.473.855.691.691 0 0 1-1.377 0zm-3.582-4.677a3.07 3.07 0 0 1-.645-3.3 2.952 2.952 0 0 1 2.735-1.871h.009a2.9 2.9 0 0 1 2.082.881 3.067 3.067 0 0 1-.954 4.941 2.873 2.873 0 0 1-1.136.233 2.914 2.914 0 0 1-2.091-.884zm.516-2.143A1.575 1.575 0 1 0 8.308 7.56a1.594 1.594 0 0 0-1.575 1.611zM14.6 4.839a.948.948 0 0 0-1.3-.354 2.314 2.314 0 0 1-2.314-.026A2.423 2.423 0 0 1 9.8 2.424a.987.987 0 0 0-.268-.71.938.938 0 0 0-.684-.3H7.773a.948.948 0 0 0-.687.3.993.993 0 0 0-.273.71 2.384 2.384 0 0 1-1.176 2.044 2.277 2.277 0 0 1-2.319-.016l-.032-.032a.711.711 0 0 1-.221-.966.677.677 0 0 1 .945-.225.972.972 0 0 0 .472.136.944.944 0 0 0 .691-.258 1 1 0 0 0 .309-.683A2.391 2.391 0 0 1 7.773 0h1.078a2.389 2.389 0 0 1 2.361 2.416.94.94 0 0 0 .126.483.955.955 0 0 0 .58.46.936.936 0 0 0 .727-.1 2.332 2.332 0 0 1 3.148.87.726.726 0 0 1-.252.958.678.678 0 0 1-.343.093.688.688 0 0 1-.598-.341z" transform="translate(2.187 1.833)"/>
    </g>
</svg>
