<svg xmlns="http://www.w3.org/2000/svg" width="26" height="26" viewBox="0 0 26 26">
    <g>
        <path fill="#8a8a8a" d="M8.826 21.571l-3.9-2.043a9.234 9.234 0 0 1-2.643-1.982A8.934 8.934 0 0 1 0 11.6a.81.81 0 0 1 .821-.8.81.81 0 0 1 .82.8 7.361 7.361 0 0 0 1.883 4.9 7.61 7.61 0 0 0 2.184 1.623l3.507 1.839 3.5-1.838A7.58 7.58 0 0 0 14.9 16.5a7.358 7.358 0 0 0 1.88-4.9V4.411a.363.363 0 0 0-.249-.341l-7.2-2.456a.382.382 0 0 0-.247 0L1.89 4.069a.363.363 0 0 0-.249.341v2.059a.81.81 0 0 1-.82.8.81.81 0 0 1-.821-.8V4.411a1.966 1.966 0 0 1 1.346-1.847L8.542.109a2.092 2.092 0 0 1 1.333 0l7.2 2.455a1.965 1.965 0 0 1 1.346 1.847V11.6a8.924 8.924 0 0 1-2.281 5.941 9.193 9.193 0 0 1-2.641 1.984L9.6 21.571a.842.842 0 0 1-.779 0zm-.97-8.461L5.787 11.1a.782.782 0 0 1 0-1.127.835.835 0 0 1 1.159 0l1.489 1.447 3.682-3.576a.837.837 0 0 1 1.159 0 .782.782 0 0 1 0 1.127L9.015 13.11a.835.835 0 0 1-1.159 0z" transform="translate(3.792 2.167)"/>
    </g>
</svg>
